<?xml version="1.0" encoding="utf-8"?>
<!-- Svg Vector Icons : http://www.onlinewebfonts.com/icon -->
<!DOCTYPE svg PUBLIC "-//W3C//DTD SVG 1.1//EN" "http://www.w3.org/Graphics/SVG/1.1/DTD/svg11.dtd">
<svg version="1.1" xmlns="http://www.w3.org/2000/svg" xmlns:xlink="http://www.w3.org/1999/xlink"
  x="0px" y="0px" viewBox="0 0 1000 1000" enable-background="new 0 0 1000 1000" xml:space="preserve">
<metadata> Svg Vector Icons : http://www.onlinewebfonts.com/icon </metadata>
<g><g transform="translate(0.000000,512.000000) scale(0.100000,-0.100000)"><path fill="#A3FFAB" d="M3382.4,4989.4c-95.7-32.5-162.7-95.7-206.8-191.4c-34.5-72.7-36.4-220.2-36.4-3819.1c0-3589.4,1.9-3746.4,36.4-3819.1c42.1-95.7,132.1-174.2,227.8-201c47.9-11.5,924.6-19.1,2618.8-19.1h2546.1l99.6,49.7c74.7,36.4,112.9,72.8,153.1,137.8l51.7,90l3.8,2641.8l3.8,2641.8L7632.2,3760.4L6384.1,5020l-1464.5-1.9C3730.8,5016.2,3441.7,5012.3,3382.4,4989.4z M6072,3616.8c5.7-884.4,9.6-991.6,40.2-1070.1c72.7-191.4,241.2-315.9,480.5-359.9c72.7-13.4,438.4-21.1,991.6-21.1h876.8V-116.2c0-2264.6,0-2281.9-40.2-2362.3c-28.7-59.4-61.3-91.9-120.6-122.5c-82.3-38.3-90-38.3-2343.2-34.5l-2262.8,5.8l-61.3,63.1l-63.2,61.3L3564.2,952c-3.8,3868.9-17.2,3537.7,135.9,3608.5c76.6,34.5,141.7,36.4,1223.3,36.4h1142.9L6072,3616.8z M7389.1,2590.7c-677.7-3.8-738.9-1.9-800.2,30.6c-137.8,70.8-137.8,76.6-137.8,913.1l1.9,746.6l834.7-842.3l836.6-842.3L7389.1,2590.7z"/><path fill="#A3FFAB" d="M1368.5,3270.3c-107.2-42.1-141.7-70.8-195.3-162.7l-53.6-90V-746v-3763.6l57.4-91.9c36.4-57.4,86.1-107.2,134-132.1c76.6-40.2,82.3-40.2,2639.9-46c1722.9-1.9,2586.3,1.9,2636,15.3c95.7,26.8,187.6,105.3,229.7,201c30.6,67,36.4,132.1,36.4,532.2v453.7h-210.6h-210.6v-287.1c0-321.6-11.5-367.6-118.7-444.1l-63.2-44l-2258.9-5.8c-2123-3.8-2262.8-1.9-2325.9,28.7c-38.3,19.1-82.3,63.2-101.5,101.5c-30.6,63.1-32.5,260.4-28.7,3507.1l5.7,3438.2l47.9,51.7c88.1,95.7,135.9,105.3,583.9,105.3h411.6v210.6v210.6l-578.1-1.9C1609.7,3293.3,1406.8,3285.6,1368.5,3270.3z"/></g></g>
</svg>